# xmcd
#
# Track frame offsets: 
#        150
#        20416
#        41331
#        57495
#        87068
#        100837
#        114441
#        132212
#        157155
#        173667
#        196789
#        217650
#        237062
#        244756
#
# Disc length: 3640 seconds
#
# Revision: 1
# Processed by: cddbd v1.5.2PL0 Copyright (c) Steve Scherf et al.
# Submitted via: ExactAudioCopy v0.99pb5
#
DISCID=a90e360e
DTITLE=Michael Martin Murphey - Live At Billy Bob's
DYEAR=2004
DGENRE=Country
TTITLE0=Southwestern Pilgrimage
TTITLE1=Alleys Of Austin
TTITLE2=Carolina In The Pines
TTITLE3=Cherokee Fiddle
TTITLE4=Long Line Of Love
TTITLE5=What's Forever For
TTITLE6=Geronimo's Cadillac
TTITLE7=Runnin' Shadow
TTITLE8=Cowboy Logic
TTITLE9=Born To Be A Cowboy
TTITLE10=Big Iron
TTITLE11=Wildfire
TTITLE12=Brothers Under The Sun
TTITLE13=Blue Sky Riding Song
EXTD=
EXTT0=
EXTT1=
EXTT2=
EXTT3=
EXTT4=
EXTT5=
EXTT6=
EXTT7=
EXTT8=
EXTT9=
EXTT10=
EXTT11=
EXTT12=
EXTT13=
PLAYORDER=
